<?xml version="1.0" encoding="utf-8"?><svg viewBox="0 0 514.9 514.9" xmlns="http://www.w3.org/2000/svg" xmlns:xlink="http://www.w3.org/1999/xlink"><style>:root>svg{display:none}:root>svg:target{display:block}</style><svg viewBox="0 0 329.269 329" id="close" xmlns="http://www.w3.org/2000/svg"><path d="M194.8 164.77L323.013 36.555c8.343-8.34 8.343-21.825 0-30.164-8.34-8.34-21.825-8.34-30.164 0L164.633 134.605 36.422 6.391c-8.344-8.34-21.824-8.34-30.164 0-8.344 8.34-8.344 21.824 0 30.164l128.21 128.215L6.259 292.984c-8.344 8.34-8.344 21.825 0 30.164a21.266 21.266 0 0015.082 6.25c5.46 0 10.922-2.09 15.082-6.25l128.21-128.214 128.216 128.214a21.273 21.273 0 0015.082 6.25c5.46 0 10.922-2.09 15.082-6.25 8.343-8.34 8.343-21.824 0-30.164zm0 0"/></svg><svg viewBox="0 0 19.8 20.5" id="phone-call" xmlns="http://www.w3.org/2000/svg"><path d="M12.8 20.5c-.3 0-.6-.1-.8-.1-1.1-.2-2.2-.7-3.2-1.3-1.6-.9-2.9-2.2-4.1-3.5-1.2-1.4-2.4-2.8-3.3-4.4C.8 10 .3 8.7.1 7.4c-.2-1.5 0-3 .7-4.3.4-.7.9-1.3 1.6-1.8.3-.4.6-.7.9-.9.7-.5 1.4-.5 1.9.1.3.3.6.7.9 1.1.5.7 1 1.5 1.3 2.3.3.9.2 1.7-.5 2.3-.3.4-.7.7-1.1 1-.8.6-1 1.3-.6 2.2.2.9.8 1.6 1.3 2.3.7.9 1.5 1.8 2.4 2.5.5.4 1 .8 1.7.9.6.1 1 0 1.5-.4.4-.4.8-.8 1.3-1.2.7-.6 1.5-.6 2.3-.2.3.1.5.3.8.5.8.7 1.7 1.3 2.3 2.2.5.7.5 1.4-.2 2-.6.6-1.2 1.2-2 1.6-.8.4-1.6.7-2.5.8h-.2c-.4.1-.7.1-1.1.1z"/></svg><svg viewBox="0 0 297.2 422.9" id="pin" xmlns="http://www.w3.org/2000/svg"><path d="M157.1 419.5c-5.1 4-12.2 3.9-17.3 0-1.5-1.2-2.9-2.4-4.1-3.8-34.4-40.1-66-82.2-92.3-128.1-15.1-26.4-28.3-53.6-36.6-83.1-9.6-33.9-8.8-67.5 5.5-99.7 22.4-50.4 61.3-80.4 116.1-89.2 3.7-.6 7.4-1 11.1-1.4h18.4c3.7.5 7.5.9 11.2 1.4 43.4 6.5 77.8 28 102.2 64.3 25.6 38.2 31.3 80.1 19 124.5-8.2 29.6-21.6 57-36.7 83.4-26.1 45.5-57.5 87.4-91.6 127.2-1.5 1.7-3.1 3.1-4.9 4.5zM148 237c40 .9 73.9-32.2 74.9-73.2 1-41.2-31.9-75.3-73.6-76.1-40.4-.8-74.2 32.2-75.1 73.4-.9 41.2 31.9 75 73.8 75.9z"/></svg><svg viewBox="0 0 514.9 514.9" id="time" xmlns="http://www.w3.org/2000/svg"><path d="M241.4 1.4h32c8.7 1.1 17.5 2 26.1 3.5 48.1 8.2 90.6 28.3 127.1 60.7 44.5 39.6 72.4 88.9 82.9 147.7 1.7 9.3 2.6 18.7 3.9 28.1v32c-.3 1.3-.7 2.6-.8 3.9-3 39.5-14.3 76.5-35 110.3-40.6 66.6-99.3 107.5-176.1 122-9.3 1.7-18.7 2.6-28.1 3.9h-32c-6.2-.8-12.5-1.4-18.7-2.3-50.9-7.3-96-27.7-134.4-61.9C43.8 409.7 16 360.6 5.4 302c-1.7-9.5-2.7-19.1-4-28.6v-32c1.1-8.6 2-17.2 3.4-25.7 9.1-53.3 32.4-99.3 70.3-137.8 38.3-38.8 84.4-63.2 138.2-72.6 9.4-1.6 18.8-2.6 28.1-3.9zm-5.2 197.1c0 22.2.1 44.3-.1 66.5-.1 8.2 2.6 14.7 8.5 20.5 34.1 33.8 67.9 67.8 101.9 101.7 1.5 1.5 3 3.1 4.8 4.4 11.7 9 28.9 3.6 33.2-10.6 2.7-8.9-.1-16.3-6.5-22.7-32-31.9-63.9-63.9-95.9-95.7-2.4-2.4-3.5-4.8-3.4-8.3.1-23.3.1-46.7.1-70 0-18-.1-36 0-54 0-6.7-2.1-12.5-7.2-16.9-6.7-5.7-14.4-7-22.4-3.6-8.2 3.5-12.8 10.1-12.9 19.1-.2 23.3-.1 46.5-.1 69.6z"/></svg></svg>