<?xml version="1.0" encoding="utf-8"?>
<!-- Generator: Adobe Illustrator 24.1.1, SVG Export Plug-In . SVG Version: 6.00 Build 0)  -->
<svg version="1.1" id="Слой_1" xmlns="http://www.w3.org/2000/svg" xmlns:xlink="http://www.w3.org/1999/xlink" x="0px" y="0px"
	 viewBox="0 0 19.8 20.5" style="enable-background:new 0 0 19.8 20.5;" xml:space="preserve">
<g>
	<path d="M12.8,20.5c-0.3,0-0.6-0.1-0.8-0.1c-1.1-0.2-2.2-0.7-3.2-1.3c-1.6-0.9-2.9-2.2-4.1-3.5c-1.2-1.4-2.4-2.8-3.3-4.4
		C0.8,10,0.3,8.7,0.1,7.4c-0.2-1.5,0-3,0.7-4.3c0.4-0.7,0.9-1.3,1.6-1.8C2.7,0.9,3,0.6,3.3,0.4C4-0.1,4.7-0.1,5.2,0.5
		c0.3,0.3,0.6,0.7,0.9,1.1c0.5,0.7,1,1.5,1.3,2.3c0.3,0.9,0.2,1.7-0.5,2.3C6.6,6.6,6.2,6.9,5.8,7.2C5,7.8,4.8,8.5,5.2,9.4
		C5.4,10.3,6,11,6.5,11.7c0.7,0.9,1.5,1.8,2.4,2.5c0.5,0.4,1,0.8,1.7,0.9c0.6,0.1,1,0,1.5-0.4c0.4-0.4,0.8-0.8,1.3-1.2
		c0.7-0.6,1.5-0.6,2.3-0.2c0.3,0.1,0.5,0.3,0.8,0.5c0.8,0.7,1.7,1.3,2.3,2.2c0.5,0.7,0.5,1.4-0.2,2c-0.6,0.6-1.2,1.2-2,1.6
		c-0.8,0.4-1.6,0.7-2.5,0.8c-0.1,0-0.1,0-0.2,0C13.5,20.5,13.2,20.5,12.8,20.5z"/>
</g>
</svg>
