<?xml version="1.0" encoding="utf-8"?>
<!-- Generator: Adobe Illustrator 24.1.1, SVG Export Plug-In . SVG Version: 6.00 Build 0)  -->
<svg version="1.1" id="Слой_1" xmlns="http://www.w3.org/2000/svg" xmlns:xlink="http://www.w3.org/1999/xlink" x="0px" y="0px"
	 viewBox="0 0 297.2 422.9" style="enable-background:new 0 0 297.2 422.9;" xml:space="preserve">
<g>
	<path d="M157.1,419.5c-5.1,4-12.2,3.9-17.3,0c-1.5-1.2-2.9-2.4-4.1-3.8c-34.4-40.1-66-82.2-92.3-128.1
		c-15.1-26.4-28.3-53.6-36.6-83.1c-9.6-33.9-8.8-67.5,5.5-99.7c22.4-50.4,61.3-80.4,116.1-89.2c3.7-0.6,7.4-1,11.1-1.4
		c6.2,0,12.3,0,18.4,0c3.7,0.5,7.5,0.9,11.2,1.4c43.4,6.5,77.8,28,102.2,64.3c25.6,38.2,31.3,80.1,19,124.5
		c-8.2,29.6-21.6,57-36.7,83.4c-26.1,45.5-57.5,87.4-91.6,127.2C160.5,416.7,158.9,418.1,157.1,419.5z M148,237
		c40,0.9,73.9-32.2,74.9-73.2c1-41.2-31.9-75.3-73.6-76.1c-40.4-0.8-74.2,32.2-75.1,73.4C73.3,202.3,106.1,236.1,148,237z"/>
</g>
</svg>
