<?xml version="1.0" encoding="utf-8"?>
<!-- Generator: Adobe Illustrator 24.1.1, SVG Export Plug-In . SVG Version: 6.00 Build 0)  -->
<svg version="1.1" id="Слой_1" xmlns="http://www.w3.org/2000/svg" xmlns:xlink="http://www.w3.org/1999/xlink" x="0px" y="0px"
	 viewBox="0 0 514.9 514.9" style="enable-background:new 0 0 514.9 514.9;" xml:space="preserve">
<g>
	<path d="M241.4,1.4c10.7,0,21.3,0,32,0c8.7,1.1,17.5,2,26.1,3.5c48.1,8.2,90.6,28.3,127.1,60.7c44.5,39.6,72.4,88.9,82.9,147.7
		c1.7,9.3,2.6,18.7,3.9,28.1c0,10.7,0,21.3,0,32c-0.3,1.3-0.7,2.6-0.8,3.9c-3,39.5-14.3,76.5-35,110.3
		c-40.6,66.6-99.3,107.5-176.1,122c-9.3,1.7-18.7,2.6-28.1,3.9c-10.7,0-21.3,0-32,0c-6.2-0.8-12.5-1.4-18.7-2.3
		c-50.9-7.3-96-27.7-134.4-61.9C43.8,409.7,16,360.6,5.4,302c-1.7-9.5-2.7-19.1-4-28.6c0-10.7,0-21.3,0-32c1.1-8.6,2-17.2,3.4-25.7
		c9.1-53.3,32.4-99.3,70.3-137.8c38.3-38.8,84.4-63.2,138.2-72.6C222.7,3.7,232.1,2.7,241.4,1.4z M236.2,198.5
		C236.2,198.5,236.2,198.5,236.2,198.5c0,22.2,0.1,44.3-0.1,66.5c-0.1,8.2,2.6,14.7,8.5,20.5c34.1,33.8,67.9,67.8,101.9,101.7
		c1.5,1.5,3,3.1,4.8,4.4c11.7,9,28.9,3.6,33.2-10.6c2.7-8.9-0.1-16.3-6.5-22.7c-32-31.9-63.9-63.9-95.9-95.7
		c-2.4-2.4-3.5-4.8-3.4-8.3c0.1-23.3,0.1-46.7,0.1-70c0-18-0.1-36,0-54c0-6.7-2.1-12.5-7.2-16.9c-6.7-5.7-14.4-7-22.4-3.6
		c-8.2,3.5-12.8,10.1-12.9,19.1C236.1,152.2,236.2,175.4,236.2,198.5z"/>
</g>
</svg>
