<svg xmlns="http://www.w3.org/2000/svg" viewBox="0 0 404 404" style="enable-background:new 0 0 404 404" xml:space="preserve"><path d="M403.9 202c0 93.7-63.9 172.5-150.5 195.3-16.4 4.3-33.7 6.6-51.4 6.6C90.5 403.9.1 313.5.1 202S90.5.1 202 .1c110.1 0 199.7 88.2 201.9 197.8v4.1z" style="fill:#0091ca"/><path d="M403.9 202c0 93.7-63.9 172.5-150.5 195.3L73.2 217.1l101 44.8 157.3-136.3 72.3 72.3c.1 1.4.1 2.7.1 4.1z" style="opacity:.1"/><path d="m330 123.4-18.7-18.7c-9.3-9.3-24.3-9.3-33.6 0L172.6 209.8l-45-45.4c-9.3-9.3-24.3-9.3-33.6 0l-20 19.8c-9.3 9.3-9.3 24.3 0 33.6l81.2 81.5c9.3 9.3 24.4 9.3 33.7-.1L330 156.9c9.3-9.3 9.2-24.3 0-33.5z" style="fill:#fff"/></svg>