<svg xmlns="http://www.w3.org/2000/svg" viewBox="0 0 382.2 382.2" style="enable-background:new 0 0 382.2 382.2" xml:space="preserve"><linearGradient id="a" gradientUnits="userSpaceOnUse" x1="86.44" y1="84.706" x2="352.213" y2="354.907"><stop offset="0" style="stop-color:#00dbff"/><stop offset="1" style="stop-color:#0091ca"/></linearGradient><path d="M380.1 190.6c0 84.1-54.8 155.4-130.7 180.2-8 2.6-16.3 4.7-24.8 6.3-11.1 2-22.5 3-34.1 3-104.6 0-189.4-84.8-189.4-189.5S85.9 1.1 190.6 1.1C292 1.1 374.8 80.8 379.9 181c.1 3.2.2 6.4.2 9.6z" style="fill:url(#a)"/><path style="fill:#fff" d="m292 93.4-.3.9L217.2 290h-50.9l-1.4-3.5L89.4 93.4h61.9l.3.9 40.3 121 13.5-42.2 4.1-12.7 21.5-67z"/><linearGradient id="b" gradientUnits="userSpaceOnUse" x1="164.596" y1="287.29" x2="167.039" y2="289.774"><stop offset="0" style="stop-color:#00dbff"/><stop offset="1" style="stop-color:#0091ca"/></linearGradient><path style="fill:url(#b)" d="m164.9 286.5 1.4 3.5-1.3-1.2z"/><linearGradient id="c" gradientUnits="userSpaceOnUse" x1="140.001" y1="122.013" x2="220.899" y2="204.258"><stop offset="0" style="stop-color:#0091ca"/><stop offset="1" style="stop-color:#0091ca"/></linearGradient><path style="opacity:.65;fill:url(#c)" d="m209.5 160.4-4.1 12.7-13.5 42.2-40.3-121-.1-1.1z"/><path d="M380.1 190.6c0 84.1-54.8 155.4-130.7 180.2-8 2.6-16.3 4.7-24.8 6.3l-58.4-87h51l74.5-195.7 88.1 86.6c.2 3.2.3 6.4.3 9.6z" style="opacity:.65;fill:#0091ca"/></svg>