<svg xmlns="http://www.w3.org/2000/svg" viewBox="0 0 333 384.9" style="enable-background:new 0 0 333 384.9" xml:space="preserve"><path d="M305.2 384.6H27.7c-.2-.2-.4-.4-.6-.5C8.5 379.1 0 368 0 348.6V97c0-8 1.6-9.6 9.7-9.6h277.8c1.7 0 3.5 0 5.2-.4 3.5-.9 5.4-3.7 5.2-7.3-.2-3.4-2.7-6-6.2-6.5-1.6-.2-3.2-.1-4.9-.1H7.1C2.3 72.9 0 70.5 0 65.8c0-11.1-.3-22.3.1-33.4C.5 18.6 7.5 8.9 20 3.2c2.5-1.1 5.1-1.7 7.7-2.6h277.5c.2.2.4.4.6.5 18.7 5 27.2 16.2 27.2 35.5v302.8c0 4.5.1 9 0 13.5-.3 13.6-9.3 25.7-22.1 30.1-1.9.5-3.8 1-5.7 1.6zM180.8 272.3c0-38.7-31.3-70.1-70-70.1s-70.2 31.3-70.2 70c0 38.5 31.5 70.2 70.1 70.2 38.5 0 70-31.4 70.1-70.1zm111.6-.2c-.3-16.7-5.5-31.6-16.2-44.5-8.1-9.9-18.3-16.9-30.3-21.3-4.3-1.6-8.2.1-9.7 3.9s.2 7.6 4.4 9.4c1.1.5 2.3.9 3.5 1.4 24 10 38 36.3 32.7 61.8-4.2 20.3-16.2 34.1-35.4 41.8-4.8 1.9-6.7 5.6-5.2 9.6s5.6 5.5 10.3 3.8c27.5-10.1 45.9-36.7 45.9-65.9zm-55.9.2c.1-29.3-18.6-56-45.8-65.8-4.8-1.7-8.6-.2-10.2 3.9-1.5 3.9.5 7.4 5 9.4 4 1.8 8.1 3.5 11.6 5.9 18.3 12.7 27 30.4 24.6 52.5-2.4 22.2-14.8 37.6-35.5 46.2-5.2 2.1-7.2 5.6-5.7 9.7 1.6 4.3 5.7 5.7 10.9 3.7 27.2-10.5 45.1-36.3 45.1-65.5zM166.5 38h-19.8c-4.9 0-7.9 2.8-8 7 0 4.3 3 7.2 7.8 7.2 13.4.1 26.7.1 40.1 0 4.8 0 7.8-3 7.8-7.2s-3.1-7-8-7h-19.9zm-7.2 103.3c0 6-.1 12 0 18 .1 5.4 2.9 8.6 7.3 8.5 4.3-.1 7-3.2 7.1-8.4.1-11.9.1-23.7 0-35.6 0-5.4-2.9-8.6-7.3-8.5-4.3.1-7 3.2-7.1 8.4-.1 5.9 0 11.8 0 17.6zm52.6-29.6c-6.9 0-10.2 5.6-7.7 10.7 4.5 9 9.2 18 13.9 26.9 2.1 4 6.2 5.2 9.8 3.3 3.4-1.8 4.8-5.9 2.9-9.7-4.6-9.1-9.2-18.3-14.2-27.2-1-1.9-3.6-3.1-4.7-4zm-83 7.7c-.4-3.9-1.9-6.3-5.3-7.4-3.4-1-6.5.3-8.4 3.9-4.5 8.6-9 17.3-13.4 25.9-2.5 4.8-1.4 8.9 2.6 10.9 3.8 1.9 7.7.3 10.1-4.2 4.4-8.4 8.7-16.8 13-25.3.7-1.3 1.1-2.7 1.4-3.8zm-34-67.1c2 0 4 .1 6 0 4-.3 6.6-3.4 6.5-7.3-.1-3.7-2.7-6.7-6.6-6.8-4-.2-8-.2-12 0-3.9.2-6.8 3.3-6.8 7.1s2.9 6.8 6.9 7.1c2 0 4-.1 6-.1zm143.4-14.2c-2 0-4-.1-6 0-4 .3-6.8 3.2-6.8 7.1 0 3.9 2.7 6.9 6.7 7.1 4 .2 8 .2 12 0 3.9-.2 6.7-3.5 6.6-7.2-.1-3.8-3-6.7-7-6.9-1.8-.2-3.6-.1-5.5-.1z" style="fill:#0091ca"/></svg>