<svg version="1.1" id="Слой_1" xmlns="http://www.w3.org/2000/svg" x="0" y="0" viewBox="0 0 305.3 384.5" style="enable-background:new 0 0 305.3 384.5" xml:space="preserve"><style>.st0{fill:#0091ca}</style><path class="st0" d="M296 384.4H9.5c-6.1-2.8-9.3-7.1-9.3-14.2.1-85.7.1-171.5.1-257.2 0-9.6 4.7-14.3 14.3-14.3h276.3c1.5 0 3 0 4.5.3 6.6 1.4 9.8 6.2 9.8 14.3 0 85-.1 170 .1 255 .1 7.6-2.1 13-9.3 16.1zm-143.2-57.3c55.5-.1 100.5-45.2 100.5-100.7s-45.2-100.6-100.6-100.6c-55.6 0-100.7 45.4-100.5 101.1.1 55.2 45.4 100.3 100.6 100.2zM296 .4c7.2 3 9.5 8.5 9.3 16.1-.4 14.4-.1 28.7-.1 43.1 0 9.6-4.6 14.3-14.2 14.3H14.4C4.9 73.9.3 69.2.2 59.6c0-14.4.3-28.7-.1-43.1C0 8.8 2.3 3.4 9.5.4H296zM151.3 49.9c0 6.8 5.5 12.4 12.3 12.4 6.8 0 12.3-5.4 12.4-12.3 0-6.8-5.5-12.3-12.3-12.4-6.9 0-12.4 5.5-12.4 12.3zm-21.8.1c0-6.8-5.7-12.5-12.3-12.5-6.9 0-12.4 5.5-12.4 12.3 0 6.8 5.5 12.4 12.3 12.4 6.8 0 12.5-5.5 12.4-12.2zM83 49.6c0-6.6-5.5-11.9-12.3-11.9-7.1-.1-12.4 5.1-12.4 12.1s5.6 12.6 12.6 12.5c6.8-.2 12.2-5.8 12.1-12.7z"/><path class="st0" d="M205.8 200.4c-19.7 0-38.1 5.4-56.1 13.2-10.6 4.6-21.3 9.2-33 10.5-11.8 1.4-23.1-.7-34.3-4.2-3.5-1.1-4.8-3.9-4.1-7.7 5-29.5 29.5-54.3 59.5-60.2 32.4-6.5 65.3 8.8 81.3 37.7 3.4 6.1.8 10.7-6.2 10.7h-7.1z"/></svg>