<svg version="1.1" id="Слой_1" xmlns="http://www.w3.org/2000/svg" x="0" y="0" viewBox="0 0 273 410.5" style="enable-background:new 0 0 273 410.5" xml:space="preserve"><style>.st0{fill:#0091ca}</style><path class="st0" d="M61.6 410.1H40.8c-7.8-3.3-6.3-10.5-6.4-16.9-2.9-.5-5.6-.7-8.1-1.4C9.9 387.2.4 374.6.3 356.9c-.1-69.7 0-139.4 0-209.1 0-7.6 3.1-10.8 10.6-10.8h251.4c7.3 0 10.6 3.1 10.6 10.4 0 70 .1 139.9 0 209.9 0 14.5-6.3 25.7-19.6 32.1-4.3 2.1-9.3 2.8-14.4 4.3-.2 5.8 1.4 13-6.4 16.3h-20.8c-8.5-2.8-6.7-10.3-7.1-16.7H68.9c-1.3 13.9-1.3 13.9-7.3 16.8zm-1.1-239c-3.7-9-9.5-10.9-15.5-5.5-2.8 2.6-5.6 5.3-8.1 8.3-4.8 5.6-2 12.9 5.2 14.2 1.3.2 2.6.2 4 .2h44.7c7.6 0 11.6-2.9 11.7-8.4.1-5.8-3.9-8.8-11.7-8.8H60.5zM242.9.5c8.7 1.9 16.5 5.4 22.4 12.7 5.5 6.9 7.7 14.8 7.8 23.4.1 24.1 0 48.2 0 72.4 0 7.8-3.1 11-10.8 11h-251C3.6 120 .5 116.9.5 109c0-23.9.2-47.7-.1-71.6C.1 17.3 13.1 3.3 29.8.9c.2 0 .4-.3.7-.4h212.4zM60.5 68.7c-3.8-9-9.5-10.9-15.5-5.5-2.8 2.6-5.6 5.3-8.1 8.2-4.8 5.6-2 12.9 5.2 14.2 1.3.2 2.6.2 4 .2h44.7c7.6 0 11.6-2.9 11.7-8.4.1-5.8-3.9-8.8-11.7-8.8-10.2.1-20.3.1-30.3.1z"/><path class="st0" d="M61.6 410.1c6-2.9 6-2.9 7.2-16.7h135.7c.5 6.3-1.4 13.9 7.1 16.7h-150z"/></svg>