<?xml version="1.0" encoding="utf-8"?>
<!-- Generator: Adobe Illustrator 24.1.1, SVG Export Plug-In . SVG Version: 6.00 Build 0)  -->
<svg version="1.1" xmlns="http://www.w3.org/2000/svg" xmlns:xlink="http://www.w3.org/1999/xlink" x="0px" y="0px"
	 viewBox="0 0 404 404" style="enable-background:new 0 0 404 404;" xml:space="preserve">
<style type="text/css">
	.st0{display:none;}
	.st1{fill:#0091CA;}
	.st2{opacity:0.1;}
	.st3{fill:#FFFFFF;}
</style>
<g id="Слой_1" class="st0">
	
		<image style="display:inline;overflow:visible;" width="512" height="512" xlink:href="../../../../../../Downloads/checked.png"  transform="matrix(0.7925 0 0 0.7925 -0.8876 -0.382)">
	</image>
</g>
<g id="Слой_2">
	<path class="st1" d="M403.9,202c0,93.7-63.9,172.5-150.5,195.3c-16.4,4.3-33.7,6.6-51.4,6.6C90.5,403.9,0.1,313.5,0.1,202
		C0.1,90.5,90.5,0.1,202,0.1c110.1,0,199.7,88.2,201.9,197.8C403.9,199.3,403.9,200.6,403.9,202z"/>
	<path class="st2" d="M403.9,202c0,93.7-63.9,172.5-150.5,195.3L73.2,217.1l101,44.8l157.3-136.3l72.3,72.3
		C403.9,199.3,403.9,200.6,403.9,202z"/>
	<path class="st3" d="M330,123.4l-18.7-18.7c-9.3-9.3-24.3-9.3-33.6,0L172.6,209.8l-45-45.4c-9.3-9.3-24.3-9.3-33.6,0L74,184.2
		c-9.3,9.3-9.3,24.3,0,33.6l81.2,81.5c9.3,9.3,24.4,9.3,33.7-0.1L330,156.9C339.3,147.6,339.2,132.6,330,123.4z"/>
</g>
</svg>
