<?xml version="1.0" encoding="utf-8"?>
<!-- Generator: Adobe Illustrator 24.1.1, SVG Export Plug-In . SVG Version: 6.00 Build 0)  -->
<svg version="1.1" xmlns="http://www.w3.org/2000/svg" xmlns:xlink="http://www.w3.org/1999/xlink" x="0px" y="0px"
	 viewBox="0 0 382.2 382.2" style="enable-background:new 0 0 382.2 382.2;" xml:space="preserve">
<style type="text/css">
	.st0{display:none;}
	.st1{fill:url(#SVGID_1_);}
	.st2{fill:#FFFFFF;}
	.st3{fill:url(#SVGID_2_);}
	.st4{opacity:0.65;fill:url(#SVGID_3_);}
	.st5{opacity:0.65;fill:#0091CA;}
</style>
<g id="Слой_1" class="st0">
	
		<image style="display:inline;overflow:visible;" width="512" height="512" xlink:href="../../../../../../Downloads/letter-v.png"  transform="matrix(0.75 0 0 0.75 -0.8989 -0.8989)">
	</image>
</g>
<g id="Слой_2">
	<linearGradient id="SVGID_1_" gradientUnits="userSpaceOnUse" x1="86.4404" y1="84.7062" x2="352.2127" y2="354.9067">
		<stop  offset="0" style="stop-color:#00DBFF"/>
		<stop  offset="1" style="stop-color:#0091CA"/>
	</linearGradient>
	<path class="st1" d="M380.1,190.6c0,84.1-54.8,155.4-130.7,180.2c-8,2.6-16.3,4.7-24.8,6.3c-11.1,2-22.5,3-34.1,3
		C85.9,380.1,1.1,295.3,1.1,190.6S85.9,1.1,190.6,1.1C292,1.1,374.8,80.8,379.9,181C380,184.2,380.1,187.4,380.1,190.6z"/>
	<g id="Слой_3">
		<polygon class="st2" points="292,93.4 291.7,94.3 217.2,290 166.3,290 164.9,286.5 89.4,93.4 151.3,93.4 151.6,94.3 191.9,215.3 
			205.4,173.1 209.5,160.4 231,93.4 		"/>
	</g>
	<g id="Слой_4">
		<linearGradient id="SVGID_2_" gradientUnits="userSpaceOnUse" x1="164.596" y1="287.2901" x2="167.0393" y2="289.7741">
			<stop  offset="0" style="stop-color:#00DBFF"/>
			<stop  offset="1" style="stop-color:#0091CA"/>
		</linearGradient>
		<polygon class="st3" points="164.9,286.5 166.3,290 165,288.8 		"/>
		<linearGradient id="SVGID_3_" gradientUnits="userSpaceOnUse" x1="140.0011" y1="122.0129" x2="220.8986" y2="204.2582">
			<stop  offset="0" style="stop-color:#0091CA"/>
			<stop  offset="1" style="stop-color:#0091CA"/>
		</linearGradient>
		<polygon class="st4" points="209.5,160.4 205.4,173.1 191.9,215.3 151.6,94.3 151.5,93.2 		"/>
		<path class="st5" d="M380.1,190.6c0,84.1-54.8,155.4-130.7,180.2c-8,2.6-16.3,4.7-24.8,6.3l-58.4-87h51l74.5-195.7l88.1,86.6
			C380,184.2,380.1,187.4,380.1,190.6z"/>
	</g>
</g>
</svg>
