<?xml version="1.0" encoding="utf-8"?>
<!-- Generator: Adobe Illustrator 24.1.1, SVG Export Plug-In . SVG Version: 6.00 Build 0)  -->
<svg version="1.1" id="Слой_1" xmlns="http://www.w3.org/2000/svg" xmlns:xlink="http://www.w3.org/1999/xlink" x="0px" y="0px"
	 viewBox="0 0 273 410.5" style="enable-background:new 0 0 273 410.5;" xml:space="preserve">
<style type="text/css">
	.st0{fill:#0091CA;}
</style>
<g>
	<path class="st0" d="M61.6,410.1c-6.9,0-13.8,0-20.8,0c-7.8-3.3-6.3-10.5-6.4-16.9c-2.9-0.5-5.6-0.7-8.1-1.4
		c-16.4-4.6-25.9-17.2-26-34.9c-0.1-69.7,0-139.4,0-209.1c0-7.6,3.1-10.8,10.6-10.8c83.8,0,167.6,0,251.4,0
		c7.3,0,10.6,3.1,10.6,10.4c0,70,0.1,139.9,0,209.9c0,14.5-6.3,25.7-19.6,32.1c-4.3,2.1-9.3,2.8-14.4,4.3c-0.2,5.8,1.4,13-6.4,16.3
		c-6.9,0-13.8,0-20.8,0c-8.5-2.8-6.7-10.3-7.1-16.7c-45.5,0-90.6,0-135.7,0C67.6,407.2,67.6,407.2,61.6,410.1z M60.5,171.1
		c-3.7-9-9.5-10.9-15.5-5.5c-2.8,2.6-5.6,5.3-8.1,8.3c-4.8,5.6-2,12.9,5.2,14.2c1.3,0.2,2.6,0.2,4,0.2c14.9,0,29.8,0,44.7,0
		c7.6,0,11.6-2.9,11.7-8.4c0.1-5.8-3.9-8.8-11.7-8.8C80.6,171.1,70.5,171.1,60.5,171.1z"/>
	<path class="st0" d="M242.9,0.5c8.7,1.9,16.5,5.4,22.4,12.7c5.5,6.9,7.7,14.8,7.8,23.4c0.1,24.1,0,48.2,0,72.4
		c0,7.8-3.1,11-10.8,11c-83.7,0-167.3,0-251,0c-7.7,0-10.8-3.1-10.8-11c0-23.9,0.2-47.7-0.1-71.6C0.1,17.3,13.1,3.3,29.8,0.9
		c0.2,0,0.4-0.3,0.7-0.4C101.3,0.5,172.1,0.5,242.9,0.5z M60.5,68.7c-3.8-9-9.5-10.9-15.5-5.5c-2.8,2.6-5.6,5.3-8.1,8.2
		c-4.8,5.6-2,12.9,5.2,14.2c1.3,0.2,2.6,0.2,4,0.2c14.9,0,29.8,0,44.7,0c7.6,0,11.6-2.9,11.7-8.4c0.1-5.8-3.9-8.8-11.7-8.8
		C80.6,68.7,70.5,68.7,60.5,68.7z"/>
	<path class="st0" d="M61.6,410.1c6-2.9,6-2.9,7.2-16.7c45.1,0,90.2,0,135.7,0c0.5,6.3-1.4,13.9,7.1,16.7
		C161.7,410.1,111.7,410.1,61.6,410.1z"/>
</g>
</svg>
