<?xml version="1.0" encoding="utf-8"?>
<!-- Generator: Adobe Illustrator 24.1.1, SVG Export Plug-In . SVG Version: 6.00 Build 0)  -->
<svg version="1.1" id="Слой_1" xmlns="http://www.w3.org/2000/svg" xmlns:xlink="http://www.w3.org/1999/xlink" x="0px" y="0px"
	 viewBox="0 0 305.3 384.5" style="enable-background:new 0 0 305.3 384.5;" xml:space="preserve">
<style type="text/css">
	.st0{fill:#0091CA;}
</style>
<g>
	<path class="st0" d="M296,384.4c-95.5,0-191,0-286.5,0c-6.1-2.8-9.3-7.1-9.3-14.2c0.1-85.7,0.1-171.5,0.1-257.2
		c0-9.6,4.7-14.3,14.3-14.3c92.1,0,184.2,0,276.3,0c1.5,0,3,0,4.5,0.3c6.6,1.4,9.8,6.2,9.8,14.3c0,85-0.1,170,0.1,255
		C305.4,375.9,303.2,381.3,296,384.4z M152.8,327.1c55.5-0.1,100.5-45.2,100.5-100.7c0-55.5-45.2-100.6-100.6-100.6
		c-55.6,0-100.7,45.4-100.5,101.1C52.3,282.1,97.6,327.2,152.8,327.1z"/>
	<path class="st0" d="M296,0.4c7.2,3,9.5,8.5,9.3,16.1c-0.4,14.4-0.1,28.7-0.1,43.1c0,9.6-4.6,14.3-14.2,14.3
		c-92.2,0-184.4,0-276.6,0c-9.5,0-14.1-4.7-14.2-14.3c0-14.4,0.3-28.7-0.1-43.1C0,8.8,2.3,3.4,9.5,0.4C105,0.4,200.5,0.4,296,0.4z
		 M151.3,49.9c0,6.8,5.5,12.4,12.3,12.4c6.8,0,12.3-5.4,12.4-12.3c0-6.8-5.5-12.3-12.3-12.4C156.8,37.6,151.3,43.1,151.3,49.9z
		 M129.5,50c0-6.8-5.7-12.5-12.3-12.5c-6.9,0-12.4,5.5-12.4,12.3c0,6.8,5.5,12.4,12.3,12.4C123.9,62.2,129.6,56.7,129.5,50z
		 M83,49.6c0-6.6-5.5-11.9-12.3-11.9c-7.1-0.1-12.4,5.1-12.4,12.1c0,7,5.6,12.6,12.6,12.5C77.7,62.1,83.1,56.5,83,49.6z"/>
	<path class="st0" d="M205.8,200.4c-19.7,0-38.1,5.4-56.1,13.2c-10.6,4.6-21.3,9.2-33,10.5c-11.8,1.4-23.1-0.7-34.3-4.2
		c-3.5-1.1-4.8-3.9-4.1-7.7c5-29.5,29.5-54.3,59.5-60.2c32.4-6.5,65.3,8.8,81.3,37.7c3.4,6.1,0.8,10.7-6.2,10.7
		C210.5,200.4,208.1,200.4,205.8,200.4z"/>
</g>
</svg>
