<?xml version="1.0" encoding="utf-8"?>
<!-- Generator: Adobe Illustrator 24.1.1, SVG Export Plug-In . SVG Version: 6.00 Build 0)  -->
<svg version="1.1" id="Слой_1" xmlns="http://www.w3.org/2000/svg" xmlns:xlink="http://www.w3.org/1999/xlink" x="0px" y="0px"
	 viewBox="0 0 333 384.9" style="enable-background:new 0 0 333 384.9;" xml:space="preserve">
<style type="text/css">
	.st0{fill:#0091CA;}
</style>
<g>
	<path class="st0" d="M305.2,384.6c-92.5,0-185,0-277.5,0c-0.2-0.2-0.4-0.4-0.6-0.5C8.5,379.1,0,368,0,348.6c0-83.9,0-167.7,0-251.6
		c0-8,1.6-9.6,9.7-9.6c92.6,0,185.2,0,277.8,0c1.7,0,3.5,0,5.2-0.4c3.5-0.9,5.4-3.7,5.2-7.3c-0.2-3.4-2.7-6-6.2-6.5
		c-1.6-0.2-3.2-0.1-4.9-0.1c-92,0-184,0-276,0c-1.2,0-2.5,0-3.7,0C2.3,72.9,0,70.5,0,65.8c0-11.1-0.3-22.3,0.1-33.4
		C0.5,18.6,7.5,8.9,20,3.2c2.5-1.1,5.1-1.7,7.7-2.6c92.5,0,185,0,277.5,0c0.2,0.2,0.4,0.4,0.6,0.5c18.7,5,27.2,16.2,27.2,35.5
		c0,100.9,0,201.9,0,302.8c0,4.5,0.1,9,0,13.5c-0.3,13.6-9.3,25.7-22.1,30.1C309,383.5,307.1,384,305.2,384.6z M180.8,272.3
		c0-38.7-31.3-70.1-70-70.1c-38.7,0-70.2,31.3-70.2,70c0,38.5,31.5,70.2,70.1,70.2C149.2,342.4,180.7,311,180.8,272.3z M292.4,272.1
		c-0.3-16.7-5.5-31.6-16.2-44.5c-8.1-9.9-18.3-16.9-30.3-21.3c-4.3-1.6-8.2,0.1-9.7,3.9c-1.5,3.8,0.2,7.6,4.4,9.4
		c1.1,0.5,2.3,0.9,3.5,1.4c24,10,38,36.3,32.7,61.8c-4.2,20.3-16.2,34.1-35.4,41.8c-4.8,1.9-6.7,5.6-5.2,9.6c1.5,4,5.6,5.5,10.3,3.8
		C274,327.9,292.4,301.3,292.4,272.1z M236.5,272.3c0.1-29.3-18.6-56-45.8-65.8c-4.8-1.7-8.6-0.2-10.2,3.9c-1.5,3.9,0.5,7.4,5,9.4
		c4,1.8,8.1,3.5,11.6,5.9c18.3,12.7,27,30.4,24.6,52.5c-2.4,22.2-14.8,37.6-35.5,46.2c-5.2,2.1-7.2,5.6-5.7,9.7
		c1.6,4.3,5.7,5.7,10.9,3.7C218.6,327.3,236.5,301.5,236.5,272.3z M166.5,38c-6.6,0-13.2,0-19.8,0c-4.9,0-7.9,2.8-8,7
		c0,4.3,3,7.2,7.8,7.2c13.4,0.1,26.7,0.1,40.1,0c4.8,0,7.8-3,7.8-7.2c0-4.2-3.1-7-8-7C179.7,38,173.1,38,166.5,38z M159.3,141.3
		c0,6-0.1,12,0,18c0.1,5.4,2.9,8.6,7.3,8.5c4.3-0.1,7-3.2,7.1-8.4c0.1-11.9,0.1-23.7,0-35.6c0-5.4-2.9-8.6-7.3-8.5
		c-4.3,0.1-7,3.2-7.1,8.4C159.2,129.6,159.3,135.5,159.3,141.3z M211.9,111.7c-6.9,0-10.2,5.6-7.7,10.7c4.5,9,9.2,18,13.9,26.9
		c2.1,4,6.2,5.2,9.8,3.3c3.4-1.8,4.8-5.9,2.9-9.7c-4.6-9.1-9.2-18.3-14.2-27.2C215.6,113.8,213,112.6,211.9,111.7z M128.9,119.4
		c-0.4-3.9-1.9-6.3-5.3-7.4c-3.4-1-6.5,0.3-8.4,3.9c-4.5,8.6-9,17.3-13.4,25.9c-2.5,4.8-1.4,8.9,2.6,10.9c3.8,1.9,7.7,0.3,10.1-4.2
		c4.4-8.4,8.7-16.8,13-25.3C128.2,121.9,128.6,120.5,128.9,119.4z M94.9,52.3C94.9,52.3,94.9,52.3,94.9,52.3c2,0,4,0.1,6,0
		c4-0.3,6.6-3.4,6.5-7.3c-0.1-3.7-2.7-6.7-6.6-6.8c-4-0.2-8-0.2-12,0c-3.9,0.2-6.8,3.3-6.8,7.1c0,3.8,2.9,6.8,6.9,7.1
		C90.9,52.4,92.9,52.3,94.9,52.3z M238.3,38.1c-2,0-4-0.1-6,0c-4,0.3-6.8,3.2-6.8,7.1c0,3.9,2.7,6.9,6.7,7.1c4,0.2,8,0.2,12,0
		c3.9-0.2,6.7-3.5,6.6-7.2c-0.1-3.8-3-6.7-7-6.9C242,38,240.2,38.1,238.3,38.1z"/>
</g>
</svg>
